<svg width="150" height="153" viewBox="0 0 150 153" fill="none" xmlns="http://www.w3.org/2000/svg">
<path d="M113.583 111.76V108.489L132.758 116.298V111.484L113.583 103.133V99.8622L132.758 107.671V103.217L113.583 94.8649V91.5945L132.758 99.4038V94.7732L113.583 86.4214V83.151L132.758 90.9603V86.3298L113.583 77.978V74.7076L132.758 82.5245V78.0697L113.583 69.7179V66.4475L132.758 74.2567V72.4381L112.099 63.5897L107.78 66.8448V58.2867H106.924L80.9091 47.1153V43.6692L107.78 54.8864V52.5711H106.924L80.9091 41.3998V37.9536L107.78 49.1708V46.8556H106.924L80.9091 35.6765V32.2304L107.78 43.4476V40.6739H106.924L80.9091 29.5025V26.0563L107.78 37.2735V34.7672H106.924L80.9091 23.6035V20.1574L107.78 31.3746V28.7842H106.924L80.9091 17.6129V14.1667L107.78 25.3839V23.0686H106.924L80.9091 11.8896V8.44347L107.78 19.6607V17.4295H106.924L80.9091 6.26574V2.81194L107.78 14.0292V12.2564L78.0758 0L52.9621 22.06V46.2519L39.7273 40.3147H37.4318L17.5833 58.0193V120.661L19.3409 118.484L19.4773 58.6993L22.7197 55.7728V115.71L23.9318 114.946V54.6648L28.2955 50.722V96.1486L29.5076 95.5679V49.6216L33.3788 46.122V109.941H34.6364V45.2127H34.394L37.7046 42.2174V109.765H48.644V103.499H56.2046V49.1632L58.5 50.3858V104.309H60.2576V110.033H61.8788V50.699L61.2046 49.9731V17.567L65.7955 12.9365V68.0445H67.553L67.4167 52.426V12.3863L73.1667 7.35079L72.8106 56.7814V115.068H74.2955V6.67073L74.4318 5.99066L78.9015 2.2465L78.6137 6.67073V118.744H85.9015L87.9243 121.601H92.6515V116.016H95.7576V79.3916L98.7576 76.8776V115.886H99.9015V75.9225L103.318 73.0494V112.157H104.402V72.1401L107.644 69.4199V121.471H109.083V68.2126L111.826 65.9126L112.099 121.334L113.235 121.808L113.311 117.658L132.75 125.559V120.104L113.583 111.76ZM44.0076 76.9846H41.5758V43.7609L44.0076 44.8077V76.9846ZM50.3106 93.7799H47.4318V46.2137L50.3106 47.4821V93.7799ZM59.7121 49.1632L55.9318 47.2529V23.0152L59.7121 19.2022V49.1632Z" fill="#6C2B95"/>
<path d="M0 142.263L29.697 112.669H48.8636V118.476L52.3788 120.111V106.495H57.8258V112.669L68.9394 112.845L73.2576 118.109L69.303 117.934L54.7197 134.675L61.3788 134.996L68.7576 142.263H52.9167L28.9773 118.659L5.57576 142.263H0Z" fill="#6C2B95"/>
<path d="M65.3409 145.35L59.7121 152.158H100.265L122.765 129.006L145.629 152.158H150L122.947 124.375H104.856V128.096L100.962 130.664L100.992 120.142H102.212V118.545H95.4924V119.943H96.2348V123.924H90.0909L99.8939 133.812V134.576H95.5227V145.541L65.3409 145.35Z" fill="#6C2B95"/>
<path d="M60.5227 132.047L70.8712 121.609H84.5076L94.9091 131.779H93.106V142.263H91.5303V130.007L84.6439 123.061L76.6363 132.184L60.5227 132.047Z" fill="#6C2B95"/>
<path d="M28.7652 128.753H25.3561V132.192H28.7652V128.753Z" fill="#6C2B95"/>
<path d="M32.9848 128.753H30.4848V131.932H32.9848V128.753Z" fill="#6C2B95"/>
<path d="M33.4242 133.728H30.4848V136.692H33.4242V133.728Z" fill="#6C2B95"/>
<path d="M28.2955 133.728H25.3561V136.692H28.2955V133.728Z" fill="#6C2B95"/>
<path d="M84.1212 130.014H82.5455V131.527H84.1212V130.014Z" fill="#6C2B95"/>
<path d="M86.4318 130.014H84.856V131.527H86.4318V130.014Z" fill="#6C2B95"/>
<path d="M84.1212 132.284H82.5455V133.797H84.1212V132.284Z" fill="#6C2B95"/>
<path d="M86.4318 132.284H84.856V133.797H86.4318V132.284Z" fill="#6C2B95"/>
</svg>
