<svg width="171" height="45" viewBox="0 0 171 45" fill="none" xmlns="http://www.w3.org/2000/svg">
<path d="M33.8816 33.0523V32.0851L39.6013 34.3946V32.9709L33.8816 30.5009V29.5337L39.6013 31.8433V30.5258L33.8816 28.0558V27.0886L39.6013 29.3981V28.0287L33.8816 25.5587V24.5915L39.6013 26.901V25.5316L33.8816 23.0616V22.0944L39.6013 24.4062V23.0887L33.8816 20.6187V19.6515L39.6013 21.961V21.4232L33.4387 18.8063L32.1506 19.769V17.238H31.8952L24.135 13.9341V12.9149L32.1506 16.2324V15.5476H31.8952L24.135 12.2438V11.2246L32.1506 14.542V13.8573H31.8952L24.135 10.5511V9.53196L32.1506 12.8494V12.0291H31.8952L24.135 8.7252V7.70602L32.1506 11.0235V10.2822H31.8952L24.135 6.98062V5.96143L32.1506 9.27886V8.51278H31.8952L24.135 5.20891V4.18973L32.1506 7.50716V6.82243H31.8952L24.135 3.5163V2.49711L32.1506 5.81454V5.15467H31.8952L24.135 1.85306V0.831618L32.1506 4.14905V3.62477L23.2898 0L15.7985 6.52413V13.6788L11.8506 11.9229H11.1658L5.24507 17.1589V35.685L5.76935 35.0409L5.81003 17.36L6.77723 16.4945V34.2206L7.13881 33.9946V16.1668L8.44047 15.0008V28.4354L8.80204 28.2637V14.6753L9.95681 13.6403V32.5144H10.3319V13.3714H10.2596L11.2472 12.4856V32.4625H14.5104V30.6094H16.7657V14.5397L17.4504 14.9013V30.8489H17.9747V32.5416H18.4583V14.994L18.2572 14.7793V5.19535L19.6266 3.82589V20.1238H20.1509L20.1102 15.5047V3.66318L21.8254 2.17396L21.7192 16.7928V34.0308H22.1622V1.97283L22.2028 1.77171L23.5361 0.66439L23.4503 1.97283V35.1178H25.6242L26.2276 35.9629H27.6377V34.311H28.5643V23.4796L29.4591 22.7362V34.2726H29.8004V22.4537L30.8196 21.604V33.1698H31.1427V21.3351L32.1099 20.5306V35.9245H32.5393V20.1735L33.3574 19.4933L33.4387 35.8838L33.7777 36.024L33.8003 34.7969L39.599 37.1335V35.52L33.8816 33.0523ZM13.1274 22.7678H12.402V12.942L13.1274 13.2516V22.7678ZM15.0075 27.7349H14.1488V13.6675L15.0075 14.0426V27.7349ZM17.812 14.5397L16.6843 13.9748V6.80661L17.812 5.67895V14.5397Z" fill="#6C2B95"/>
<path d="M0 42.0735L8.85853 33.3212H14.5759V35.0387L15.6245 35.5223V31.4953H17.2493V33.3212L20.5645 33.3732L21.8526 34.9302L20.6729 34.8782L16.3228 39.8295L18.3091 39.9244L20.5102 42.0735H15.7849L8.64385 35.0929L1.66323 42.0735H0Z" fill="#6C2B95"/>
<path d="M19.491 42.9865L17.812 45H29.9088L36.6205 38.1527L43.4407 45H44.7446L36.6748 36.7833H31.2783V37.8838L30.1168 38.6431L30.1258 35.5313H30.4896V35.059H28.4852V35.4726H28.7066V36.6499H26.8739L29.7981 39.5741V39.8001H28.4942V43.043L19.491 42.9865Z" fill="#6C2B95"/>
<path d="M18.0538 39.0521L21.1407 35.9652H25.2084L28.3111 38.973H27.7733V42.0735H27.3033V38.4487L25.2491 36.3946L22.8604 39.0928L18.0538 39.0521Z" fill="#6C2B95"/>
<path d="M8.58058 38.0781H7.56365V39.0951H8.58058V38.0781Z" fill="#6C2B95"/>
<path d="M9.83929 38.0781H9.09355V39.0182H9.83929V38.0781Z" fill="#6C2B95"/>
<path d="M9.97036 39.5492H9.09355V40.4261H9.97036V39.5492Z" fill="#6C2B95"/>
<path d="M8.44047 39.5492H7.56365V40.4261H8.44047V39.5492Z" fill="#6C2B95"/>
<path d="M25.0932 38.451H24.6231V38.8985H25.0932V38.451Z" fill="#6C2B95"/>
<path d="M25.7824 38.451H25.3123V38.8985H25.7824V38.451Z" fill="#6C2B95"/>
<path d="M25.0932 39.1222H24.6231V39.5697H25.0932V39.1222Z" fill="#6C2B95"/>
<path d="M25.7824 39.1222H25.3123V39.5697H25.7824V39.1222Z" fill="#6C2B95"/>
<path d="M66.1305 14.0712V17.8512H61.5751V31.1539H56.8259V17.8512H52.319V14.0712H66.1305Z" fill="black"/>
<path d="M72.6368 17.8754V20.6619H78.0888V24.2723H72.6368V27.3496H78.8157V31.1539H67.8876V14.0712H78.8157V17.8754H72.6368Z" fill="black"/>
<path d="M96.9852 31.1539H92.236L85.9117 21.6069V31.1539H81.1625V14.0712H85.9117L92.236 23.7392V14.0712H96.9852V31.1539Z" fill="black"/>
<path d="M110.497 28.3673H104.44L103.519 31.1539H98.5274L104.755 14.0712H110.231L116.434 31.1539H111.418L110.497 28.3673ZM109.31 24.7327L107.469 19.2081L105.651 24.7327H109.31Z" fill="black"/>
<path d="M133.805 31.1539H129.055L122.731 21.6069V31.1539H117.982V14.0712H122.731L129.055 23.7392V14.0712H133.805V31.1539Z" fill="black"/>
<path d="M135.928 22.5762C135.928 20.8962 136.276 19.4019 136.97 18.0935C137.681 16.7689 138.683 15.7431 139.975 15.0162C141.267 14.2731 142.753 13.9015 144.433 13.9015C146.566 13.9015 148.359 14.475 149.813 15.6219C151.266 16.7527 152.203 18.2954 152.623 20.25H147.511C147.204 19.6039 146.776 19.1112 146.226 18.7719C145.693 18.4327 145.071 18.2631 144.361 18.2631C143.262 18.2631 142.382 18.6589 141.72 19.4504C141.073 20.2258 140.75 21.2677 140.75 22.5762C140.75 23.9008 141.073 24.9589 141.72 25.7504C142.382 26.5258 143.262 26.9135 144.361 26.9135C145.071 26.9135 145.693 26.7439 146.226 26.4046C146.776 26.0654 147.204 25.5727 147.511 24.9265H152.623C152.203 26.8812 151.266 28.4319 149.813 29.5789C148.359 30.7096 146.566 31.275 144.433 31.275C142.753 31.275 141.267 30.9116 139.975 30.1846C138.683 29.4416 137.681 28.4158 136.97 27.1073C136.276 25.7827 135.928 24.2723 135.928 22.5762Z" fill="black"/>
<path d="M170.404 14.0712L164.395 25.7262V31.1539H159.622V25.7262L153.612 14.0712H159.04L162.045 20.6619L165.049 14.0712H170.404Z" fill="black"/>
</svg>
