<svg width="149" height="45" viewBox="0 0 149 45" fill="none" xmlns="http://www.w3.org/2000/svg">
<path d="M33.8816 33.0523V32.0851L39.6013 34.3946V32.9709L33.8816 30.5009V29.5337L39.6013 31.8433V30.5258L33.8816 28.0558V27.0886L39.6013 29.3981V28.0287L33.8816 25.5587V24.5915L39.6013 26.901V25.5316L33.8816 23.0616V22.0944L39.6013 24.4062V23.0887L33.8816 20.6187V19.6515L39.6013 21.961V21.4232L33.4387 18.8063L32.1506 19.769V17.238H31.8952L24.135 13.9341V12.9149L32.1506 16.2324V15.5476H31.8952L24.135 12.2438V11.2246L32.1506 14.542V13.8573H31.8952L24.135 10.5511V9.53196L32.1506 12.8494V12.0291H31.8952L24.135 8.7252V7.70602L32.1506 11.0235V10.2822H31.8952L24.135 6.98062V5.96143L32.1506 9.27886V8.51278H31.8952L24.135 5.20891V4.18973L32.1506 7.50716V6.82243H31.8952L24.135 3.5163V2.49711L32.1506 5.81454V5.15467H31.8952L24.135 1.85306V0.831618L32.1506 4.14905V3.62477L23.2898 0L15.7985 6.52413V13.6788L11.8506 11.9229H11.1658L5.24507 17.1589V35.685L5.76935 35.0409L5.81003 17.36L6.77723 16.4945V34.2206L7.13881 33.9946V16.1668L8.44047 15.0008V28.4354L8.80204 28.2637V14.6753L9.95681 13.6403V32.5144H10.3319V13.3714H10.2596L11.2472 12.4856V32.4625H14.5104V30.6094H16.7657V14.5397L17.4504 14.9013V30.8489H17.9747V32.5416H18.4583V14.994L18.2572 14.7793V5.19535L19.6266 3.82589V20.1238H20.1509L20.1102 15.5047V3.66318L21.8254 2.17396L21.7192 16.7928V34.0308H22.1622V1.97283L22.2028 1.77171L23.5361 0.66439L23.4503 1.97283V35.1178H25.6242L26.2276 35.9629H27.6377V34.311H28.5643V23.4796L29.4591 22.7362V34.2726H29.8004V22.4537L30.8196 21.604V33.1698H31.1427V21.3351L32.1099 20.5306V35.9245H32.5393V20.1735L33.3574 19.4933L33.4387 35.8838L33.7777 36.024L33.8003 34.7969L39.599 37.1335V35.52L33.8816 33.0523ZM13.1274 22.7678H12.402V12.942L13.1274 13.2516V22.7678ZM15.0075 27.7349H14.1488V13.6675L15.0075 14.0426V27.7349ZM17.812 14.5397L16.6843 13.9748V6.80661L17.812 5.67895V14.5397Z" fill="white"/>
<path d="M0 42.0735L8.85853 33.3212H14.5759V35.0387L15.6245 35.5223V31.4953H17.2493V33.3212L20.5645 33.3732L21.8526 34.9302L20.6729 34.8782L16.3228 39.8295L18.3091 39.9244L20.5102 42.0735H15.7849L8.64385 35.0929L1.66323 42.0735H0Z" fill="white"/>
<path d="M19.491 42.9865L17.812 45H29.9088L36.6205 38.1527L43.4407 45H44.7446L36.6748 36.7833H31.2783V37.8838L30.1168 38.6431L30.1258 35.5313H30.4896V35.059H28.4852V35.4726H28.7066V36.6499H26.8739L29.7981 39.5741V39.8001H28.4942V43.043L19.491 42.9865Z" fill="white"/>
<path d="M18.0538 39.0521L21.1407 35.9652H25.2084L28.3111 38.973H27.7733V42.0735H27.3033V38.4487L25.2491 36.3946L22.8604 39.0928L18.0538 39.0521Z" fill="white"/>
<path d="M8.58058 38.0781H7.56365V39.0951H8.58058V38.0781Z" fill="white"/>
<path d="M9.83929 38.0781H9.09355V39.0182H9.83929V38.0781Z" fill="white"/>
<path d="M9.97036 39.5492H9.09355V40.4261H9.97036V39.5492Z" fill="white"/>
<path d="M8.44047 39.5492H7.56365V40.4261H8.44047V39.5492Z" fill="white"/>
<path d="M25.0932 38.451H24.6231V38.8985H25.0932V38.451Z" fill="white"/>
<path d="M25.7824 38.451H25.3123V38.8985H25.7824V38.451Z" fill="white"/>
<path d="M25.0932 39.1222H24.6231V39.5697H25.0932V39.1222Z" fill="white"/>
<path d="M25.7824 39.1222H25.3123V39.5697H25.7824V39.1222Z" fill="white"/>
<path d="M66.088 14.08V17.824H61.576V31H56.872V17.824H52.408V14.08H66.088Z" fill="white"/>
<path d="M72.5324 17.848V20.608H77.9324V24.184H72.5324V27.232H78.6524V31H67.8284V14.08H78.6524V17.848H72.5324Z" fill="white"/>
<path d="M96.6488 31H91.9448L85.6808 21.544V31H80.9768V14.08H85.6808L91.9448 23.656V14.08H96.6488V31Z" fill="white"/>
<path d="M110.032 28.24H104.032L103.12 31H98.1764L104.344 14.08H109.768L115.912 31H110.944L110.032 28.24ZM108.856 24.64L107.032 19.168L105.232 24.64H108.856Z" fill="white"/>
<path d="M133.118 31H128.414L122.15 21.544V31H117.446V14.08H122.15L128.414 23.656V14.08H133.118V31Z" fill="white"/>
<path d="M148.541 14.08V17.824H144.029V31H139.325V17.824H134.861V14.08H148.541Z" fill="white"/>
</svg>
