<svg width="15" height="21" viewBox="0 0 15 21" fill="none" xmlns="http://www.w3.org/2000/svg">
<path d="M7.5 0.5C8.33333 0.526042 9.0625 0.760417 9.6875 1.20312C10.3125 1.67188 10.7682 2.27083 11.0547 3H12.5C13.2031 3.02604 13.7891 3.27344 14.2578 3.74219C14.7266 4.21094 14.974 4.79688 15 5.5V18C14.974 18.7031 14.7266 19.2891 14.2578 19.7578C13.7891 20.2266 13.2031 20.474 12.5 20.5H2.5C1.79688 20.474 1.21094 20.2266 0.742188 19.7578C0.273438 19.2891 0.0260417 18.7031 0 18V5.5C0.0260417 4.79688 0.273438 4.21094 0.742188 3.74219C1.21094 3.27344 1.79688 3.02604 2.5 3H3.98438C4.24479 2.27083 4.6875 1.67188 5.3125 1.20312C5.9375 0.760417 6.66667 0.526042 7.5 0.5ZM7.5 3C7.13542 3 6.83594 3.11719 6.60156 3.35156C6.36719 3.58594 6.25 3.88542 6.25 4.25C6.25 4.61458 6.36719 4.91406 6.60156 5.14844C6.83594 5.38281 7.13542 5.5 7.5 5.5C7.86458 5.5 8.16406 5.38281 8.39844 5.14844C8.63281 4.91406 8.75 4.61458 8.75 4.25C8.75 3.88542 8.63281 3.58594 8.39844 3.35156C8.16406 3.11719 7.86458 3 7.5 3ZM2.8125 11.125C2.86458 11.6979 3.17708 12.0104 3.75 12.0625C4.32292 12.0104 4.63542 11.6979 4.6875 11.125C4.63542 10.5521 4.32292 10.2396 3.75 10.1875C3.17708 10.2396 2.86458 10.5521 2.8125 11.125ZM6.875 10.5C6.48438 10.526 6.27604 10.7344 6.25 11.125C6.27604 11.5156 6.48438 11.724 6.875 11.75H11.875C12.2656 11.724 12.474 11.5156 12.5 11.125C12.474 10.7344 12.2656 10.526 11.875 10.5H6.875H11.875H6.875ZM2.8125 14.875C2.86458 15.4479 3.17708 15.7604 3.75 15.8125C4.32292 15.7604 4.63542 15.4479 4.6875 14.875C4.63542 14.3021 4.32292 13.9896 3.75 13.9375C3.17708 13.9896 2.86458 14.3021 2.8125 14.875ZM6.25 14.875C6.27604 15.2656 6.48438 15.474 6.875 15.5H11.875C12.2656 15.474 12.474 15.2656 12.5 14.875C12.474 14.4844 12.2656 14.276 11.875 14.25H6.875C6.48438 14.276 6.27604 14.4844 6.25 14.875Z" fill="#73299A"/>
</svg>
